<svg width="18" height="20" viewBox="0 0 18 20" fill="none" xmlns="http://www.w3.org/2000/svg">
<path d="M10.8193 4.23177C11.004 4.41301 11.2544 4.51481 11.5154 4.51481C11.7764 4.51481 12.0267 4.41301 12.2114 4.23177L13.1569 3.30266V16.4522C13.1569 16.7088 13.2607 16.955 13.4454 17.1365C13.6301 17.318 13.8806 17.42 14.1418 17.42C14.403 17.42 14.6536 17.318 14.8383 17.1365C15.023 16.955 15.1267 16.7088 15.1267 16.4522V3.30266L16.0723 4.23177C16.1624 4.32685 16.2712 4.40312 16.392 4.45602C16.5128 4.50892 16.6432 4.53736 16.7755 4.53965C16.9077 4.54195 17.0391 4.51804 17.1617 4.46936C17.2844 4.42069 17.3958 4.34824 17.4893 4.25633C17.5828 4.16443 17.6566 4.05496 17.7061 3.93445C17.7556 3.81394 17.78 3.68486 17.7776 3.55491C17.7753 3.42496 17.7463 3.2968 17.6925 3.17808C17.6387 3.05936 17.5611 2.95251 17.4643 2.86391L14.8378 0.283043C14.6532 0.101801 14.4028 0 14.1418 0C13.8808 0 13.6305 0.101801 13.4458 0.283043L10.8193 2.86391C10.6349 3.04538 10.5313 3.29136 10.5313 3.54784C10.5313 3.80431 10.6349 4.0503 10.8193 4.23177ZM4.62088 16.6973L5.56641 15.7682C5.65658 15.6731 5.76532 15.5969 5.88613 15.544C6.00695 15.4911 6.13737 15.4626 6.26962 15.4603C6.40186 15.4581 6.53323 15.482 6.65587 15.5306C6.77851 15.5793 6.88991 15.6518 6.98344 15.7437C7.07697 15.8356 7.1507 15.945 7.20023 16.0656C7.24977 16.1861 7.2741 16.3151 7.27176 16.4451C7.26943 16.575 7.24049 16.7032 7.18665 16.8219C7.13282 16.9406 7.05521 17.0475 6.95844 17.1361L4.33197 19.717C4.1473 19.8982 3.89696 20 3.63596 20C3.37495 20 3.12462 19.8982 2.93994 19.717L0.313479 17.1361C0.216711 17.0475 0.139096 16.9406 0.0852643 16.8219C0.0314323 16.7032 0.00248662 16.575 0.000153284 16.4451C-0.00218005 16.3151 0.0221468 16.1861 0.0716833 16.0656C0.12122 15.945 0.194951 15.8356 0.288478 15.7437C0.382004 15.6518 0.493411 15.5793 0.616051 15.5306C0.738692 15.482 0.870053 15.4581 1.0023 15.4603C1.13455 15.4626 1.26497 15.4911 1.38578 15.544C1.5066 15.5969 1.61534 15.6731 1.70551 15.7682L2.65103 16.6973V3.54784C2.65103 3.29115 2.7548 3.04498 2.93951 2.86348C3.12422 2.68198 3.37474 2.58001 3.63596 2.58001C3.89718 2.58001 4.1477 2.68198 4.33241 2.86348C4.51711 3.04498 4.62088 3.29115 4.62088 3.54784V16.6973Z" fill="#273C7C"/>
</svg>
