<svg width="12" height="8" viewBox="0 0 12 8" fill="none" xmlns="http://www.w3.org/2000/svg">
<path d="M11.7359 0.305919C11.5667 0.110039 11.3373 -5.79388e-08 11.098 -7.8852e-08C10.8588 -9.97651e-08 10.6294 0.110039 10.4602 0.305919L5.99455 5.47794L1.52889 0.305918C1.35874 0.11559 1.13086 0.0102739 0.894314 0.0126544C0.657772 0.015035 0.431499 0.124921 0.264233 0.318646C0.0969657 0.51237 0.00208848 0.774432 3.32869e-05 1.04839C-0.00202286 1.32235 0.08891 1.58628 0.253245 1.78334L5.35673 7.69408C5.52591 7.88996 5.75533 8 5.99455 8C6.23377 8 6.4632 7.88996 6.63238 7.69408L11.7359 1.78334C11.905 1.5874 12 1.32169 12 1.04463C12 0.767573 11.905 0.501858 11.7359 0.305919Z" fill="#273C7C"/>
</svg>
