<svg width="8" height="12" viewBox="0 0 8 12" fill="none" xmlns="http://www.w3.org/2000/svg">
<path d="M0.305919 0.264139C0.110039 0.433317 -2.89694e-08 0.662742 -3.9426e-08 0.901961C-4.98826e-08 1.14118 0.110039 1.37061 0.305919 1.53978L5.47795 6.00545L0.305919 10.4711C0.11559 10.6413 0.0102743 10.8691 0.0126549 11.1057C0.0150355 11.3422 0.124922 11.5685 0.318646 11.7358C0.512371 11.903 0.774433 11.9979 1.04839 12C1.32235 12.002 1.58628 11.9111 1.78334 11.7468L7.69408 6.64327C7.88996 6.47409 8 6.24467 8 6.00545C8 5.76623 7.88996 5.5368 7.69408 5.36762L1.78334 0.264139C1.5874 0.0950108 1.32169 5.77728e-08 1.04463 4.56623e-08C0.767573 3.35517e-08 0.501858 0.0950107 0.305919 0.264139Z" fill="#273C7C"/>
</svg>
