<svg width="21" height="23" viewBox="0 0 21 23" fill="none" xmlns="http://www.w3.org/2000/svg">
<path d="M0.103516 18.5296C0.103516 19.1874 0.636776 19.7207 1.29459 19.7207H19.4858C20.1436 19.7207 20.6768 19.1874 20.6768 18.5296C20.6768 17.8718 20.1436 17.3386 19.4858 17.3386H1.29459C0.636778 17.3386 0.103516 17.8718 0.103516 18.5296Z" fill="white"/>
<path d="M0.103516 11.1712C0.103516 11.829 0.636777 12.3623 1.29459 12.3623H19.4858C20.1436 12.3623 20.6768 11.829 20.6768 11.1712C20.6768 10.5134 20.1436 9.98016 19.4858 9.98016H1.29459C0.636778 9.98016 0.103516 10.5134 0.103516 11.1712Z" fill="white"/>
<path d="M0.103516 3.81283C0.103516 4.47065 0.636776 5.00391 1.29459 5.00391H19.4858C20.1436 5.00391 20.6768 4.47065 20.6768 3.81283C20.6768 3.15502 20.1436 2.62176 19.4858 2.62176H1.29459C0.636778 2.62176 0.103516 3.15502 0.103516 3.81283Z" fill="white"/>
</svg>
