<svg width="27" height="24" viewBox="0 0 27 24" fill="none" xmlns="http://www.w3.org/2000/svg">
<path d="M1 6.53166C1.11195 6.27668 1.18658 5.99681 1.34205 5.7667C1.68411 5.25673 2.20652 5.07016 2.79734 5.0515C2.85331 5.0515 2.9155 5.0515 2.97147 5.0515C10.1484 5.0515 17.3315 5.0515 24.5085 5.0515C24.9625 5.0515 25.404 5.10747 25.7772 5.39355C26.2312 5.73561 26.4613 6.20205 26.4675 6.76177C26.4799 8.02426 26.4862 9.28054 26.4675 10.543C26.4551 11.3577 25.8891 12.0108 25.0682 12.1911C22.1514 12.8441 19.2346 13.4909 16.3178 14.1377C16.237 14.1564 16.1623 14.1812 16.0566 14.2061C16.0566 14.2994 16.0566 14.3865 16.0566 14.4735C16.0566 14.9524 16.0628 15.4375 16.0566 15.9164C16.0504 16.4326 15.8576 16.6254 15.3476 16.6254C14.2717 16.6254 13.1896 16.6254 12.1137 16.6254C11.6286 16.6254 11.4296 16.4388 11.4233 15.9537C11.4171 15.4624 11.4233 14.9773 11.4233 14.486C11.4233 14.3989 11.4233 14.3056 11.4233 14.1999C10.8823 14.0755 10.3599 13.9574 9.83744 13.8392C7.36221 13.2919 4.8932 12.7446 2.41797 12.1849C1.70898 12.0232 1.25498 11.5878 1.05597 10.8851C1.04353 10.8353 1.01866 10.7918 1.00622 10.7483C0.999998 9.34895 1 7.93719 1 6.53166ZM16.0691 13.0307C16.1623 13.012 16.2432 13.0058 16.324 12.9872C19.1289 12.359 21.9275 11.7309 24.7324 11.1028C25.1677 11.0032 25.317 10.8229 25.317 10.3751C25.317 9.22456 25.3232 8.0678 25.317 6.91725C25.317 6.4135 25.1242 6.22692 24.6266 6.21448C24.5831 6.21448 24.5458 6.21448 24.5023 6.21448C17.3253 6.21448 10.1422 6.21448 2.96526 6.21448C2.85953 6.21448 2.74759 6.21448 2.64186 6.22692C2.38687 6.25802 2.23761 6.40106 2.18786 6.64361C2.1692 6.74311 2.15676 6.84262 2.15676 6.93591C2.15676 8.07402 2.15676 9.20591 2.15676 10.344C2.15676 10.8229 2.29981 10.997 2.77246 11.0965C5.12331 11.6252 7.47416 12.1476 9.825 12.6762C10.3474 12.7944 10.8698 12.9063 11.4047 13.0245C11.4233 12.813 11.4296 12.6202 11.4482 12.4337C11.4731 12.2222 11.6037 12.0854 11.8027 12.0294C11.9146 11.9983 12.0328 11.9921 12.1448 11.9859C13.2082 11.9859 14.2655 11.9859 15.329 11.9859C15.4098 11.9859 15.4969 11.9859 15.5777 12.0045C15.8514 12.0543 15.9944 12.2035 16.0317 12.4834C16.0504 12.67 16.0566 12.8441 16.0691 13.0307ZM12.5925 15.4624C13.3637 15.4624 14.11 15.4624 14.8688 15.4624C14.8688 14.6912 14.8688 13.9325 14.8688 13.1675C14.1038 13.1675 13.3513 13.1675 12.5925 13.1675C12.5925 13.9387 12.5925 14.6912 12.5925 15.4624Z" fill="#273C7C" stroke="#273C7C" stroke-width="0.5"/>
<path d="M13.7248 23C10.298 23 6.87747 23 3.4507 23C2.97183 23 2.53027 22.8943 2.16334 22.5709C1.8275 22.2723 1.63471 21.8992 1.59117 21.4514C1.57874 21.3084 1.57874 21.1716 1.57874 21.0285C1.57874 18.6839 1.57874 16.3393 1.57874 13.9884C1.57874 13.8889 1.57873 13.7894 1.58495 13.6899C1.61605 13.3665 1.81506 13.1737 2.13224 13.1613C2.42454 13.1488 2.65465 13.323 2.71063 13.6277C2.72928 13.7334 2.7355 13.8392 2.7355 13.9511C2.7355 16.3144 2.7355 18.6777 2.7355 21.041C2.7355 21.1405 2.7355 21.24 2.74794 21.3395C2.78525 21.6193 2.92208 21.7686 3.20194 21.8184C3.30144 21.837 3.40095 21.8432 3.50046 21.8432C10.3229 21.8432 17.1453 21.8432 23.9678 21.8432C24.0735 21.8432 24.1854 21.837 24.2849 21.8121C24.5399 21.7624 24.6767 21.6256 24.7141 21.3644C24.7327 21.2586 24.7265 21.1467 24.7265 21.041C24.7265 18.6839 24.7265 16.333 24.7265 13.976C24.7265 13.8827 24.7203 13.7956 24.7327 13.7023C24.77 13.3541 25.0001 13.1488 25.3173 13.155C25.6469 13.1613 25.8522 13.3665 25.877 13.7272C25.8833 13.7956 25.8833 13.8578 25.8833 13.9262C25.8833 16.3144 25.8833 18.7025 25.8833 21.0907C25.8833 21.5385 25.8086 21.9614 25.5225 22.3283C25.2116 22.7263 24.8073 22.9316 24.316 22.9813C24.1854 22.9938 24.0486 22.9938 23.918 22.9938C20.5223 23 17.1267 23 13.7248 23Z" fill="#273C7C" stroke="#273C7C" stroke-width="0.5"/>
<path d="M9.1167 2.94315C9.0856 2.30879 9.25974 1.7615 9.77593 1.36348C10.1118 1.10227 10.4974 1.00276 10.914 1.00276C11.7785 1.00276 12.6367 1.00276 13.5012 1.00276C14.5274 1.00276 15.5598 0.996545 16.5859 1.00276C17.3073 1.00898 17.8671 1.3075 18.1905 1.97295C18.4268 2.45183 18.4019 2.97424 18.3273 3.48421C18.29 3.75164 18.0288 3.90712 17.7489 3.88846C17.4753 3.8698 17.2638 3.70188 17.2265 3.44068C17.2016 3.2541 17.2078 3.06131 17.2078 2.86852C17.2016 2.35854 17.0026 2.15331 16.4989 2.15331C14.6518 2.15331 12.8047 2.15331 10.9514 2.15331C10.46 2.15331 10.2548 2.35854 10.2486 2.84986C10.2424 3.024 10.2548 3.19813 10.2424 3.37227C10.2175 3.68945 9.9936 3.88846 9.68264 3.88846C9.37168 3.89468 9.14157 3.70188 9.11048 3.38471C9.09804 3.24167 9.1167 3.09241 9.1167 2.94315Z" fill="#273C7C" stroke="#273C7C" stroke-width="0.5"/>
</svg>
