<svg width="26" height="26" viewBox="0 0 26 26" fill="none" xmlns="http://www.w3.org/2000/svg">
<path d="M3.79163 8.66667C3.79184 7.63958 4.05756 6.62998 4.56298 5.73586C5.06841 4.84173 5.79638 4.09343 6.67626 3.56359C7.55614 3.03375 8.55804 2.74035 9.58474 2.71187C10.6114 2.68339 11.6281 2.92079 12.536 3.40104C13.4439 3.88129 14.2122 4.58808 14.7664 5.45281C15.3206 6.31754 15.6419 7.31086 15.6991 8.33636C15.7562 9.36186 15.5473 10.3847 15.0926 11.3057C14.6379 12.2266 13.9529 13.0144 13.104 13.5926C14.9321 14.2631 16.5177 15.4654 17.6568 17.0446C18.7959 18.6239 19.4363 20.5079 19.4956 22.4543C19.4931 22.6641 19.4096 22.8649 19.2625 23.0146C19.1155 23.1643 18.9163 23.2514 18.7065 23.2577C18.4967 23.264 18.2927 23.189 18.1369 23.0483C17.9811 22.9077 17.8857 22.7123 17.8706 22.503C17.8061 20.3921 16.9222 18.3892 15.4062 16.9189C13.8903 15.4485 11.8613 14.6262 9.74942 14.6262C7.63751 14.6262 5.60859 15.4485 4.09261 16.9189C2.57663 18.3892 1.69273 20.3921 1.62821 22.503C1.61737 22.7152 1.52386 22.9146 1.36774 23.0587C1.21161 23.2027 1.00527 23.2799 0.792934 23.2737C0.580595 23.2674 0.379142 23.1783 0.231732 23.0253C0.0843222 22.8724 0.00268006 22.6678 0.004296 22.4553C0.0633933 20.5088 0.703704 18.6246 1.84281 17.0451C2.98191 15.4656 4.56767 14.2632 6.39596 13.5926C5.59303 13.0462 4.93595 12.3117 4.48201 11.4531C4.02807 10.5945 3.79105 9.63788 3.79163 8.66667ZM9.74996 4.33334C8.60069 4.33334 7.49849 4.78988 6.68583 5.60254C5.87318 6.4152 5.41663 7.5174 5.41663 8.66667C5.41663 9.81594 5.87318 10.9181 6.68583 11.7308C7.49849 12.5435 8.60069 13 9.74996 13C10.8992 13 12.0014 12.5435 12.8141 11.7308C13.6268 10.9181 14.0833 9.81594 14.0833 8.66667C14.0833 7.5174 13.6268 6.4152 12.8141 5.60254C12.0014 4.78988 10.8992 4.33334 9.74996 4.33334ZM18.7308 8.66667C18.5705 8.66667 18.4145 8.67751 18.2606 8.69917C18.1532 8.7184 18.0431 8.71581 17.9367 8.69153C17.8303 8.66726 17.7299 8.62181 17.6415 8.55789C17.553 8.49397 17.4784 8.4129 17.422 8.31951C17.3655 8.22611 17.3285 8.12231 17.3131 8.0143C17.2977 7.90628 17.3041 7.79627 17.3322 7.69081C17.3602 7.58536 17.4091 7.48662 17.4761 7.4005C17.5431 7.31438 17.6268 7.24264 17.7221 7.18955C17.8174 7.13646 17.9225 7.10312 18.031 7.09151C19.1084 6.93573 20.2071 7.14264 21.1541 7.67967C22.101 8.21671 22.8426 9.05339 23.262 10.058C23.6813 11.0627 23.7547 12.1782 23.4706 13.2292C23.1865 14.2801 22.5611 15.2067 21.6926 15.8633C22.9692 16.4349 24.0531 17.3637 24.8136 18.5376C25.574 19.7115 25.9785 21.0805 25.9783 22.4792C25.9783 22.6947 25.8927 22.9013 25.7403 23.0537C25.5879 23.2061 25.3813 23.2917 25.1658 23.2917C24.9503 23.2917 24.7436 23.2061 24.5913 23.0537C24.4389 22.9013 24.3533 22.6947 24.3533 22.4792C24.3532 21.2703 23.9637 20.0937 23.2425 19.1235C22.5213 18.1534 21.5068 17.4413 20.3493 17.0928L19.7708 16.9195V15.1038L20.215 14.8774C20.8734 14.5439 21.4002 13.9982 21.7103 13.3285C22.0204 12.6588 22.0958 11.9041 21.9243 11.1862C21.7527 10.4684 21.3443 9.82932 20.7649 9.37217C20.1854 8.91502 19.4689 8.66648 18.7308 8.66667Z" fill="#273C7C"/>
</svg>
