<svg width="31" height="31" viewBox="0 0 31 31" fill="none" xmlns="http://www.w3.org/2000/svg">
<path d="M15.975 14.375C15.325 14.2125 14.675 13.8875 14.1875 13.4C13.7 13.2375 13.5375 12.75 13.5375 12.425C13.5375 12.1 13.7 11.6125 14.025 11.45C14.5125 11.125 15 10.8 15.4875 10.9625C16.4625 10.9625 17.275 11.45 17.7625 12.1L19.225 10.15C18.7375 9.6625 18.25 9.3375 17.7625 9.0125C17.275 8.6875 16.625 8.525 15.975 8.525V6.25H14.025V8.525C13.2125 8.6875 12.4 9.175 11.75 9.825C11.1 10.6375 10.6125 11.6125 10.775 12.5875C10.775 13.5625 11.1 14.5375 11.75 15.1875C12.5625 16 13.7 16.4875 14.675 16.975C15.1625 17.1375 15.8125 17.4625 16.3 17.7875C16.625 18.1125 16.7875 18.6 16.7875 19.0875C16.7875 19.575 16.625 20.0625 16.3 20.55C15.8125 21.0375 15.1625 21.2 14.675 21.2C14.025 21.2 13.2125 21.0375 12.725 20.55C12.2375 20.225 11.75 19.7375 11.425 19.25L9.8 21.0375C10.2875 21.6875 10.775 22.175 11.425 22.6625C12.2375 23.15 13.2125 23.6375 14.1875 23.6375V25.75H15.975V23.3125C16.95 23.15 17.7625 22.6625 18.4125 22.0125C19.225 21.2 19.7125 19.9 19.7125 18.7625C19.7125 17.7875 19.3875 16.65 18.575 16C17.7625 15.1875 16.95 14.7 15.975 14.375ZM15 3C7.85 3 2 8.85 2 16C2 23.15 7.85 29 15 29C22.15 29 28 23.15 28 16C28 8.85 22.15 3 15 3ZM15 27.2125C8.825 27.2125 3.7875 22.175 3.7875 16C3.7875 9.825 8.825 4.7875 15 4.7875C21.175 4.7875 26.2125 9.825 26.2125 16C26.2125 22.175 21.175 27.2125 15 27.2125Z" fill="#273C7C"/>
</svg>
