<svg width="139" height="30" viewBox="0 0 139 30" fill="none" xmlns="http://www.w3.org/2000/svg">
<path d="M25.0989 10.1354H31.431C32.9802 10.1354 34.1866 10.5245 35.049 11.3041C35.9127 12.0823 36.3439 13.1746 36.3439 14.5809C36.3439 15.9873 35.9127 17.0823 35.049 17.8689C34.1853 18.654 32.9788 19.0473 31.431 19.0473H27.7509V22.2394C27.7509 23.6054 26.6494 24.713 25.291 24.713H25.0989V10.1354ZM31.1021 17.0003C32.9249 17.0003 33.837 16.2013 33.837 14.6018C33.837 13.7888 33.6104 13.1857 33.1585 12.7924C32.7066 12.3991 32.0211 12.2032 31.1021 12.2032H27.7509V17.0003H31.1021ZM42.6774 10.3661V11.9934C42.6774 12.2463 42.4729 12.4519 42.2214 12.4519H40.2949C40.0434 12.4519 39.8389 12.2463 39.8389 11.9934V10.3661C39.8389 10.1131 40.0434 9.90747 40.2949 9.90747H42.2214C42.4729 9.90886 42.6774 10.1131 42.6774 10.3661ZM39.984 14.6018H42.0984C42.3499 14.6018 42.5544 14.8074 42.5544 15.0603V24.2544C42.5544 24.5073 42.3499 24.713 42.0984 24.713H40.44C40.1885 24.713 39.984 24.5073 39.984 24.2544V14.6018ZM52.8334 22.8717L52.7104 24.795C52.2986 24.8366 51.9227 24.8575 51.58 24.8575C50.1676 24.8575 49.1256 24.5309 48.4554 23.875C47.7838 23.2205 47.4479 22.2449 47.4479 20.9498V16.5459H45.516V14.6032H47.4479V11.5848H50.0184V14.6032H52.6704V16.5459H50.0184V20.9081C50.0184 22.2588 50.6416 22.9342 51.8896 22.9342C52.1894 22.9342 52.5045 22.9134 52.8334 22.8717ZM57.7159 24.2363C56.942 23.8097 56.3491 23.2024 55.9373 22.4172C55.5255 21.6321 55.321 20.7149 55.321 19.6671C55.321 18.6193 55.5366 17.6924 55.9691 16.8864C56.4003 16.0804 57.0139 15.4564 57.8099 15.0159C58.6045 14.5754 59.5235 14.3544 60.5655 14.3544C61.2786 14.3544 61.9737 14.4684 62.6523 14.6949C63.3308 14.9228 63.8753 15.2285 64.2871 15.6148L63.5464 17.4339C63.1208 17.0893 62.673 16.828 62.2004 16.6487C61.7277 16.4695 61.2579 16.3805 60.7921 16.3805C59.9008 16.3805 59.2084 16.6599 58.7151 17.2185C58.2217 17.7771 57.9743 18.5804 57.9743 19.6268C57.9743 20.6607 58.2217 21.457 58.7151 22.0142C59.2084 22.5729 59.9008 22.8522 60.7921 22.8522C61.2579 22.8522 61.7277 22.7633 62.2004 22.584C62.673 22.4047 63.1221 22.1435 63.5464 21.7988L64.2871 23.5971C63.849 23.9973 63.2866 24.31 62.6011 24.5379C61.9157 24.7658 61.2026 24.8783 60.4632 24.8783C59.4047 24.877 58.4898 24.6629 57.7159 24.2363ZM75.984 15.3869C76.5728 16.0762 76.8685 17.1171 76.8685 18.5081V24.7102H74.298V18.654C74.298 17.8689 74.1502 17.2963 73.8558 16.9378C73.5615 16.5793 73.0985 16.4 72.4683 16.4C71.7276 16.4 71.1347 16.6348 70.6897 17.1032C70.2448 17.5715 70.0209 18.1996 70.0209 18.9848V24.7116H67.4504V10.1354H70.0209V16.0067C70.3636 15.4689 70.8197 15.059 71.3876 14.7769C71.9556 14.4948 72.5899 14.353 73.2892 14.353C74.4957 14.353 75.3939 14.6976 75.984 15.3869ZM83.0348 24.4434C82.0619 24.1404 81.2396 23.7124 80.568 23.1621L81.4525 21.2193C82.1517 21.7571 82.8883 22.149 83.6622 22.3978C84.4361 22.6465 85.2763 22.7702 86.1801 22.7702C87.1807 22.7702 87.9518 22.5951 88.4935 22.2435C89.0353 21.8919 89.3061 21.4 89.3061 20.7649C89.3061 20.2132 89.056 19.7936 88.5557 19.5031C88.0555 19.2141 87.2221 18.9375 86.0571 18.6763C84.8507 18.415 83.8709 18.1107 83.1177 17.766C82.3632 17.4214 81.7952 16.9809 81.411 16.4431C81.0268 15.9053 80.8347 15.2229 80.8347 14.3961C80.8347 13.5414 81.0683 12.7771 81.534 12.1018C81.9997 11.4264 82.6575 10.8997 83.5074 10.5203C84.3573 10.1409 85.3371 9.95194 86.4469 9.95194C87.4612 9.95194 88.4272 10.1076 89.3462 10.4175C90.2638 10.7274 91.0184 11.1512 91.6085 11.689L90.724 13.6318C89.436 12.5979 88.0099 12.0809 86.4482 12.0809C85.5154 12.0809 84.7788 12.2699 84.2385 12.6493C83.6968 13.0287 83.4259 13.5553 83.4259 14.2307C83.4259 14.7963 83.665 15.2299 84.1459 15.5328C84.6254 15.8358 85.4408 16.1193 86.592 16.3805C87.8122 16.6571 88.8017 16.9628 89.5632 17.3005C90.3233 17.6382 90.9064 18.069 91.3114 18.5929C91.7149 19.1168 91.918 19.7783 91.918 20.5773C91.918 21.4459 91.6886 22.2074 91.2298 22.8619C90.771 23.5165 90.1063 24.0195 89.2357 24.3711C88.365 24.7227 87.341 24.8978 86.1622 24.8978C85.0497 24.8978 84.0091 24.7463 83.0348 24.4434ZM104.212 15.3869C104.801 16.0762 105.096 17.1171 105.096 18.5081V24.7102H102.526V18.654C102.526 17.8689 102.378 17.2963 102.084 16.9378C101.789 16.5793 101.326 16.4 100.696 16.4C99.9555 16.4 99.3627 16.6348 98.9177 17.1032C98.4727 17.5715 98.2488 18.1996 98.2488 18.9848V24.7116H95.6784V10.1354H98.2488V16.0067C98.5915 15.4689 99.0476 15.059 99.6156 14.7769C100.184 14.4948 100.818 14.353 101.517 14.353C102.725 14.353 103.622 14.6976 104.212 15.3869ZM111.13 24.2363C110.356 23.8097 109.756 23.1955 109.331 22.3964C108.905 21.5973 108.694 20.6663 108.694 19.6059C108.694 18.5442 108.906 17.6173 109.331 16.8252C109.755 16.0331 110.355 15.4231 111.13 14.995C111.904 14.5684 112.806 14.3544 113.833 14.3544C114.861 14.3544 115.762 14.5684 116.536 14.995C117.31 15.4231 117.907 16.0317 118.325 16.8252C118.742 17.6173 118.952 18.5442 118.952 19.6059C118.952 20.6677 118.743 21.5973 118.325 22.3964C117.906 23.1955 117.31 23.8097 116.536 24.2363C115.762 24.6643 114.861 24.8769 113.833 24.8769C112.806 24.8769 111.904 24.6629 111.13 24.2363ZM115.725 22.0448C116.163 21.4931 116.383 20.6802 116.383 19.6046C116.383 18.5429 116.163 17.7341 115.725 17.1754C115.286 16.6168 114.655 16.3375 113.833 16.3375C113.011 16.3375 112.377 16.6168 111.932 17.1754C111.487 17.7341 111.263 18.5429 111.263 19.6046C111.263 20.6802 111.482 21.4931 111.921 22.0448C112.359 22.5965 112.99 22.8717 113.812 22.8717C114.649 22.8717 115.287 22.5965 115.725 22.0448ZM138.526 14.6018L134.579 24.7116H132.338L129.871 18.1996L127.465 24.7116H125.244L121.276 14.6018H123.908L126.478 21.6307L128.525 16.0317C128.838 15.1729 129.652 14.6018 130.563 14.6018H130.899L133.469 21.6724L136.019 14.6018H138.526Z" fill="white"/>
<path d="M5.90179 12.4825C5.68715 9.42411 8.51825 6.94531 10.4725 6.5733L10.501 6.57114C10.6069 6.5636 10.71 6.52805 10.8159 6.52769C11.4672 6.52662 11.317 6.2713 11.2857 5.82675L10.9211 0.634665C10.8947 0.258339 10.5513 -0.0264195 10.1583 0.00194864L10.0112 0.0127215C4.04077 0.449375 -0.435292 6.23575 0.0337429 12.9116L5.90179 12.4825Z" fill="#FF2853"/>
<path d="M9.75973 9.498C9.17977 9.44041 8.68066 9.92483 8.68066 10.5339V14.0801C8.68066 14.5901 9.03826 15.0162 9.51959 15.0986C11.7906 15.4868 13.5218 17.4237 13.5218 19.7474C13.5218 22.0711 11.791 24.0081 9.51994 24.3963C9.03896 24.4786 8.68101 24.9047 8.68101 25.4147V28.9605C8.68101 29.5776 9.19127 30.0544 9.77855 29.995C15.0916 29.4581 19.2486 25.0669 19.2486 19.7474C19.2486 14.4217 15.0822 10.0265 9.75973 9.498Z" fill="#FF2853"/>
<ellipse cx="7.54892" cy="19.7475" rx="3.77427" ry="3.79753" fill="#FF2853"/>
</svg>
