<svg width="24" height="24" viewBox="0 0 24 24" fill="none" xmlns="http://www.w3.org/2000/svg">
<path d="M12 22C11.4696 22 10.9609 21.7893 10.5858 21.4142C10.2107 21.0391 10 20.5304 10 20H14C14 20.5304 13.7893 21.0391 13.4142 21.4142C13.0391 21.7893 12.5304 22 12 22ZM20 19H4V17L6 16V10.5C6 7.038 7.421 4.793 10 4.18V2H14V4.18C16.579 4.792 18 7.036 18 10.5V16L20 17V19ZM12 5.75C11.3994 5.71122 10.7987 5.82362 10.2528 6.07693C9.70688 6.33024 9.23317 6.71636 8.875 7.2C8.25255 8.18456 7.94714 9.33638 8 10.5V17H16V10.5C16.0528 9.33639 15.7474 8.18458 15.125 7.2C14.7668 6.71636 14.2931 6.33024 13.7472 6.07693C13.2013 5.82362 12.6006 5.71122 12 5.75Z" fill="white"/>
<circle cx="17.5" cy="6.5" r="4.5" fill="#FF2853"/>
</svg>
