<svg width="20" height="20" viewBox="0 0 20 20" fill="none" xmlns="http://www.w3.org/2000/svg">
<path fill-rule="evenodd" clip-rule="evenodd" d="M0.664429 1.5841C0.664429 1.16397 0.831325 0.76105 1.1284 0.463973C1.42548 0.166896 1.8284 0 2.24853 0H18.0896C18.5097 0 18.9126 0.166896 19.2097 0.463973C19.5068 0.76105 19.6737 1.16397 19.6737 1.5841V3.78706C19.6735 4.34719 19.4509 4.88433 19.0548 5.28034L13.3373 10.9979V18.8382C13.3373 19.0362 13.2867 19.2309 13.1903 19.4039C13.0938 19.5769 12.9548 19.7224 12.7863 19.8265C12.6179 19.9306 12.4256 19.9899 12.2278 19.9988C12.0299 20.0077 11.8331 19.9659 11.656 19.8773L7.73058 17.9151C7.51131 17.8055 7.3269 17.637 7.19801 17.4285C7.06912 17.2199 7.00085 16.9796 7.00084 16.7345V10.9979L1.28328 5.28034C0.887155 4.88433 0.664548 4.34719 0.664429 3.78706V1.5841ZM2.77657 2.11214V3.78706L8.64831 9.6588C8.79557 9.80589 8.91241 9.98055 8.99214 10.1728C9.07187 10.3651 9.11293 10.5712 9.11298 10.7793V16.2444L11.2251 17.3005V10.7793C11.2251 10.359 11.392 9.95556 11.6898 9.65986L17.5615 3.78601V2.11214H2.77657Z" fill="#273C7C"/>
</svg>
