<svg width="21" height="20" viewBox="0 0 21 20" fill="none" xmlns="http://www.w3.org/2000/svg">
<path d="M20.3834 18.3139L16.6728 14.6333C18.1132 12.8374 18.8107 10.5579 18.622 8.26356C18.4332 5.96919 17.3726 3.83432 15.6582 2.29792C13.9438 0.761532 11.7058 -0.0595993 9.40456 0.00337152C7.1033 0.0663423 4.91362 1.00863 3.28577 2.63648C1.65792 4.26433 0.715634 6.454 0.652664 8.75527C0.589693 11.0565 1.41082 13.2945 2.94722 15.0089C4.48361 16.7233 6.61848 17.784 8.91286 17.9727C11.2072 18.1614 13.4867 17.4639 15.2826 16.0235L18.9632 19.7042C19.0562 19.7979 19.1668 19.8723 19.2887 19.9231C19.4106 19.9739 19.5413 20 19.6733 20C19.8054 20 19.9361 19.9739 20.058 19.9231C20.1799 19.8723 20.2905 19.7979 20.3834 19.7042C20.5637 19.5177 20.6645 19.2684 20.6645 19.009C20.6645 18.7497 20.5637 18.5004 20.3834 18.3139ZM9.67168 16.0235C8.28698 16.0235 6.93338 15.6129 5.78205 14.8436C4.63071 14.0743 3.73336 12.9809 3.20346 11.7016C2.67356 10.4223 2.53491 9.01462 2.80505 7.65653C3.07519 6.29844 3.74199 5.05095 4.72112 4.07183C5.70025 3.0927 6.94773 2.4259 8.30582 2.15576C9.66392 1.88562 11.0716 2.02426 12.3509 2.55417C13.6302 3.08407 14.7236 3.98142 15.4929 5.13276C16.2622 6.28409 16.6728 7.63769 16.6728 9.02239C16.6728 10.8792 15.9352 12.66 14.6222 13.973C13.3093 15.2859 11.5285 16.0235 9.67168 16.0235Z" fill="#273C7C"/>
</svg>
