<svg width="30" height="30" viewBox="0 0 30 30" fill="none" xmlns="http://www.w3.org/2000/svg">
<circle cx="15" cy="15" r="15" fill="#6C46F7" fill-opacity="0.3"/>
<g opacity="0.6">
<path d="M14.9777 21.1732C14.9552 21.1636 14.9359 21.1539 14.9134 21.1475C14.6497 21.0575 14.489 20.8774 14.4472 20.6009C14.3733 20.1315 14.3025 19.6653 14.2286 19.1959C14.2254 19.1638 14.2157 19.1348 14.2093 19.1123C14.0903 19.1123 13.9778 19.122 13.8685 19.1091C13.6402 19.0866 13.4441 18.9902 13.2833 18.8294C12.5825 18.1285 11.8784 17.4276 11.1775 16.7235C10.9492 16.4921 10.8495 16.2156 10.8978 15.8876C10.901 15.8619 10.901 15.833 10.9042 15.7912C10.7659 15.7687 10.6341 15.7462 10.4991 15.7237C10.1294 15.6658 9.75963 15.6143 9.39311 15.5533C8.91406 15.4729 8.66972 14.9585 8.93335 14.5502C9.34167 13.9104 9.76606 13.2802 10.1872 12.65C10.3512 12.4057 10.5891 12.2707 10.8817 12.2482C11.454 12.1999 12.0263 12.1549 12.5985 12.1131C12.6853 12.1067 12.7336 12.0681 12.785 12.007C13.3862 11.2997 14.0678 10.676 14.8459 10.1648C15.6175 9.65682 16.463 9.31602 17.3601 9.10061C18.3246 8.86913 19.2987 8.77589 20.289 8.84662C20.7391 8.87877 21.0992 9.23886 21.1474 9.68575C21.1506 9.72112 21.1603 9.75648 21.1699 9.79185C21.1699 10.1198 21.1699 10.4509 21.1699 10.7821C21.1635 10.8175 21.1538 10.8528 21.1506 10.8882C21.1281 11.3544 21.067 11.8141 20.977 12.2739C20.797 13.1709 20.5044 14.0229 20.0414 14.8138C19.5302 15.6883 18.8743 16.447 18.1092 17.1061C17.9355 17.254 17.8745 17.4116 17.8648 17.627C17.8391 18.1092 17.7909 18.5883 17.7587 19.0673C17.733 19.4242 17.5626 19.6846 17.2668 19.8775C16.7363 20.2248 16.2091 20.5784 15.6786 20.9224C15.5339 21.0189 15.3731 21.0928 15.2188 21.1764C15.1384 21.1732 15.0613 21.1732 14.9777 21.1732ZM15.8136 17.7942C15.8425 17.7813 15.8779 17.7652 15.9133 17.7459C16.7974 17.2926 17.569 16.6914 18.2571 15.9744C19.0608 15.1385 19.6781 14.1869 20.0318 13.0712C20.2922 12.2514 20.4272 11.409 20.4529 10.5506C20.4594 10.3191 20.4562 10.0844 20.4465 9.85294C20.4369 9.63753 20.3694 9.57323 20.1507 9.55715C20.0896 9.55393 20.0318 9.55072 19.9707 9.55072C19.2409 9.53464 18.5175 9.59252 17.8037 9.74362C16.9614 9.92045 16.1576 10.2034 15.4246 10.6631C14.3282 11.3479 13.4345 12.2417 12.7175 13.3156C12.531 13.5985 12.367 13.8975 12.1999 14.1772C13.4119 15.3925 14.6047 16.5885 15.8136 17.7942ZM11.8912 14.952C11.8912 14.952 11.8784 14.9617 11.8784 14.9713C11.7883 15.3121 11.6983 15.6529 11.6147 15.9937C11.5954 16.0741 11.6276 16.1448 11.6855 16.2027C11.7498 16.2702 11.8141 16.3345 11.8816 16.3988C12.5085 17.0258 13.1354 17.6527 13.7624 18.2828C13.846 18.3664 13.9296 18.4147 14.0517 18.3825C14.3604 18.2989 14.6723 18.2218 14.9809 18.1414C15.0098 18.135 15.0356 18.1189 15.0516 18.1125C13.9939 17.0579 12.9425 16.0066 11.8912 14.952ZM17.1286 17.8713C16.4341 18.3279 15.7107 18.6847 14.9198 18.9226C14.997 19.4178 15.0709 19.9065 15.1481 20.4048C15.1963 20.3759 15.2252 20.3566 15.2574 20.3373C15.7911 19.9836 16.3248 19.6267 16.8649 19.2763C16.9839 19.1991 17.0418 19.1027 17.0482 18.9612C17.061 18.733 17.0836 18.5047 17.0996 18.2764C17.1093 18.151 17.1157 18.0224 17.1286 17.8713ZM12.1098 12.8751C11.724 12.9073 11.3382 12.9362 10.9556 12.9683C10.8527 12.978 10.7949 13.0455 10.7434 13.1259C10.3834 13.6724 10.0233 14.2158 9.66318 14.7623C9.6471 14.7881 9.63102 14.817 9.6053 14.8556C10.1036 14.9327 10.5923 15.0067 11.0585 15.0806C11.2193 14.6916 11.3543 14.3122 11.5247 13.9522C11.6983 13.5888 11.9073 13.2416 12.1098 12.8751Z" fill="#6C46F7" fill-opacity="0.6"/>
<path d="M9.09386 21.1731C8.76271 20.9738 8.73699 20.7519 9.0167 20.4722C9.73045 19.7585 10.4474 19.0415 11.1612 18.3246C11.2705 18.2152 11.3926 18.1509 11.5502 18.1895C11.7945 18.2506 11.9006 18.5367 11.7559 18.7457C11.7302 18.7843 11.6949 18.8197 11.6595 18.8518C10.9522 19.5591 10.2481 20.2665 9.53754 20.9706C9.4636 21.0445 9.37036 21.1024 9.28677 21.1699C9.22247 21.1731 9.15817 21.1731 9.09386 21.1731Z" fill="#6C46F7" fill-opacity="0.6"/>
<path d="M11.3122 21.1725C11.2897 21.1629 11.2704 21.1533 11.2479 21.1468C10.9939 21.0504 10.9135 20.7514 11.1032 20.5585C11.4954 20.1566 11.8941 19.7579 12.296 19.3657C12.4375 19.2274 12.6593 19.2339 12.7976 19.3657C12.939 19.5039 12.9487 19.7258 12.804 19.8737C12.4117 20.2723 12.0163 20.6678 11.6176 21.0568C11.563 21.1115 11.4794 21.134 11.4119 21.1725C11.3765 21.1725 11.3443 21.1725 11.3122 21.1725Z" fill="#6C46F7" fill-opacity="0.6"/>
<path d="M10.736 17.4601C10.7392 17.563 10.7006 17.6498 10.6299 17.7206C10.2376 18.1128 9.84862 18.505 9.45638 18.8941C9.30206 19.0452 9.08022 19.0387 8.93875 18.8941C8.80051 18.7526 8.80051 18.534 8.9484 18.3861C9.33742 17.9939 9.72966 17.6016 10.1219 17.2126C10.2344 17.1001 10.3727 17.0743 10.5206 17.1322C10.6556 17.1837 10.736 17.3123 10.736 17.4601Z" fill="#6C46F7" fill-opacity="0.6"/>
<path d="M15.4791 12.7137C15.4791 11.7138 16.286 10.9068 17.2859 10.9036C18.2826 10.9036 19.096 11.717 19.096 12.7137C19.096 13.7104 18.2858 14.5173 17.2859 14.5173C16.2796 14.5205 15.4791 13.7168 15.4791 12.7137ZM16.2025 12.7105C16.2025 13.3117 16.6751 13.7907 17.2763 13.7972C17.8807 13.8004 18.3694 13.3181 18.3726 12.7201C18.3758 12.1253 17.8807 11.6302 17.2827 11.6302C16.6847 11.6334 16.2025 12.1157 16.2025 12.7105Z" fill="#6C46F7" fill-opacity="0.6"/>
</g>
</svg>
