<svg width="25" height="25" viewBox="0 0 25 25" fill="none" xmlns="http://www.w3.org/2000/svg">
<path fill-rule="evenodd" clip-rule="evenodd" d="M7.29171 16.6667H17.7084C20.5849 16.6667 22.9167 18.9985 22.9167 21.875C22.9167 22.4503 22.4503 22.9167 21.875 22.9167C21.3408 22.9167 20.9006 22.5145 20.8404 21.9965L20.8281 21.6914C20.7365 20.1117 19.4717 18.8468 17.892 18.7553L17.7084 18.75H7.29171C5.56582 18.75 4.16671 20.1491 4.16671 21.875C4.16671 22.4503 3.70034 22.9167 3.12504 22.9167C2.54974 22.9167 2.08337 22.4503 2.08337 21.875C2.08337 19.0742 4.29411 16.7898 7.06578 16.6715L7.29171 16.6667H17.7084H7.29171ZM12.5 2.08334C15.9518 2.08334 18.75 4.88156 18.75 8.33334C18.75 11.7851 15.9518 14.5833 12.5 14.5833C9.04826 14.5833 6.25004 11.7851 6.25004 8.33334C6.25004 4.88156 9.04826 2.08334 12.5 2.08334ZM12.5 4.16667C10.1989 4.16667 8.33337 6.03215 8.33337 8.33334C8.33337 10.6345 10.1989 12.5 12.5 12.5C14.8012 12.5 16.6667 10.6345 16.6667 8.33334C16.6667 6.03215 14.8012 4.16667 12.5 4.16667Z" fill="#273C7C"/>
</svg>
